<svg width="342" height="99" viewBox="0 0 342 99" fill="none" xmlns="http://www.w3.org/2000/svg">
<path d="M155.583 41.6047C155.329 40.6644 154.956 39.836 154.463 39.1196C153.971 38.3882 153.366 37.7688 152.65 37.2614C151.933 36.7539 151.112 36.3733 150.187 36.1196C149.262 35.8509 148.247 35.7166 147.142 35.7166C144.918 35.7166 142.993 36.2539 141.366 37.3285C139.754 38.4032 138.508 39.9704 137.627 42.0301C136.746 44.0749 136.306 46.56 136.306 49.4854C136.306 52.4258 136.732 54.9333 137.582 57.0079C138.433 59.0826 139.664 60.6647 141.276 61.7543C142.888 62.8438 144.844 63.3886 147.142 63.3886C149.172 63.3886 150.888 63.0603 152.291 62.4035C153.709 61.7319 154.784 60.7841 155.515 59.5602C156.247 58.3363 156.612 56.896 156.612 55.2392L158.672 55.4855H147.523V47.4033H167.292V53.4706C167.292 57.5751 166.419 61.0901 164.672 64.0155C162.941 66.9409 160.553 69.1872 157.508 70.7544C154.478 72.3216 150.993 73.1052 147.053 73.1052C142.679 73.1052 138.836 72.1574 135.523 70.2619C132.209 68.3663 129.627 65.6648 127.776 62.1573C125.925 58.6348 125 54.4557 125 49.6198C125 45.8585 125.56 42.5226 126.679 39.6121C127.799 36.6867 129.358 34.2091 131.358 32.1792C133.373 30.1493 135.702 28.612 138.343 27.5672C141 26.5224 143.858 26 146.918 26C149.575 26 152.045 26.3806 154.329 27.1418C156.627 27.903 158.657 28.9777 160.418 30.3657C162.195 31.7538 163.635 33.4031 164.739 35.3136C165.844 37.2241 166.53 39.3211 166.799 41.6047H155.583Z" fill="black"/>
<path d="M189.876 73.1276C186.264 73.1276 183.159 72.3888 180.562 70.9111C177.98 69.4186 175.988 67.3439 174.585 64.6871C173.197 62.0155 172.503 58.9184 172.503 55.396C172.503 51.8586 173.197 48.7615 174.585 46.1048C175.988 43.4331 177.98 41.3584 180.562 39.8808C183.159 38.3882 186.264 37.642 189.876 37.642C193.488 37.642 196.585 38.3882 199.167 39.8808C201.764 41.3584 203.757 43.4331 205.145 46.1048C206.548 48.7615 207.249 51.8586 207.249 55.396C207.249 58.9184 206.548 62.0155 205.145 64.6871C203.757 67.3439 201.764 69.4186 199.167 70.9111C196.585 72.3888 193.488 73.1276 189.876 73.1276ZM189.943 64.8663C191.257 64.8663 192.369 64.4633 193.279 63.6573C194.189 62.8513 194.884 61.7319 195.361 60.299C195.854 58.8662 196.1 57.2094 196.1 55.3288C196.1 53.4183 195.854 51.7467 195.361 50.3138C194.884 48.8809 194.189 47.7615 193.279 46.9555C192.369 46.1496 191.257 45.7466 189.943 45.7466C188.585 45.7466 187.436 46.1496 186.495 46.9555C185.57 47.7615 184.861 48.8809 184.368 50.3138C183.891 51.7467 183.652 53.4183 183.652 55.3288C183.652 57.2094 183.891 58.8662 184.368 60.299C184.861 61.7319 185.57 62.8513 186.495 63.6573C187.436 64.4633 188.585 64.8663 189.943 64.8663Z" fill="black"/>
<path d="M226.403 85.374V38.0897H237.239V43.9779H237.574C238.022 42.9331 238.657 41.9256 239.477 40.9554C240.313 39.9853 241.373 39.1942 242.657 38.5823C243.955 37.9554 245.507 37.642 247.313 37.642C249.701 37.642 251.933 38.2688 254.008 39.5226C256.097 40.7763 257.784 42.7092 259.067 45.3212C260.351 47.9332 260.993 51.2616 260.993 55.3064C260.993 59.202 260.373 62.4632 259.134 65.0901C257.911 67.717 256.254 69.6872 254.164 71.0007C252.09 72.3141 249.784 72.9709 247.246 72.9709C245.515 72.9709 244.015 72.6873 242.746 72.1201C241.477 71.5529 240.41 70.8066 239.545 69.8813C238.694 68.9559 238.037 67.9633 237.574 66.9036H237.351V85.374H226.403ZM237.127 55.284C237.127 57.1348 237.373 58.7468 237.865 60.1199C238.373 61.4931 239.097 62.5602 240.037 63.3215C240.992 64.0677 242.134 64.4409 243.463 64.4409C244.806 64.4409 245.948 64.0677 246.888 63.3215C247.828 62.5602 248.537 61.4931 249.015 60.1199C249.507 58.7468 249.754 57.1348 249.754 55.284C249.754 53.4332 249.507 51.8287 249.015 50.4705C248.537 49.1123 247.828 48.06 246.888 47.3138C245.963 46.5675 244.821 46.1943 243.463 46.1943C242.119 46.1943 240.977 46.56 240.037 47.2914C239.097 48.0227 238.373 49.0675 237.865 50.4257C237.373 51.784 237.127 53.4034 237.127 55.284Z" fill="black"/>
<path d="M288.917 57.6348V38.0897H299.842V72.4783H289.409V66.0752H289.051C288.29 68.1797 286.991 69.8514 285.155 71.0902C283.334 72.3141 281.133 72.9261 278.551 72.9261C276.208 72.9261 274.148 72.3888 272.372 71.3141C270.595 70.2395 269.215 68.7394 268.23 66.814C267.245 64.8737 266.745 62.605 266.73 60.008V38.0897H277.678V57.8587C277.693 59.7244 278.185 61.1946 279.155 62.2692C280.125 63.3438 281.446 63.8812 283.118 63.8812C284.208 63.8812 285.185 63.6424 286.051 63.1647C286.932 62.6722 287.626 61.9632 288.133 61.0378C288.655 60.0975 288.917 58.9632 288.917 57.6348Z" fill="black"/>
<path d="M306.811 85.374V38.0897H317.647V43.9779H317.982C318.43 42.9331 319.064 41.9256 319.885 40.9554C320.721 39.9853 321.781 39.1942 323.065 38.5823C324.363 37.9554 325.915 37.642 327.721 37.642C330.109 37.642 332.341 38.2688 334.415 39.5226C336.505 40.7763 338.192 42.7092 339.475 45.3212C340.759 47.9332 341.401 51.2616 341.401 55.3064C341.401 59.202 340.781 62.4632 339.542 65.0901C338.318 67.717 336.662 69.6872 334.572 71.0007C332.498 72.3141 330.191 72.9709 327.654 72.9709C325.923 72.9709 324.423 72.6873 323.154 72.1201C321.885 71.5529 320.818 70.8066 319.953 69.8813C319.102 68.9559 318.445 67.9633 317.982 66.9036H317.758V85.374H306.811ZM317.535 55.284C317.535 57.1348 317.781 58.7468 318.273 60.1199C318.781 61.4931 319.505 62.5602 320.445 63.3215C321.4 64.0677 322.542 64.4409 323.871 64.4409C325.214 64.4409 326.356 64.0677 327.296 63.3215C328.236 62.5602 328.945 61.4931 329.423 60.1199C329.915 58.7468 330.162 57.1348 330.162 55.284C330.162 53.4332 329.915 51.8287 329.423 50.4705C328.945 49.1123 328.236 48.06 327.296 47.3138C326.371 46.5675 325.229 46.1943 323.871 46.1943C322.527 46.1943 321.385 46.56 320.445 47.2914C319.505 48.0227 318.781 49.0675 318.273 50.4257C317.781 51.784 317.535 53.4034 317.535 55.284Z" fill="black"/>
<path d="M111.226 32.3209H98.282C98.282 25.5603 92.7345 20.0964 86.0774 20.189L72.6709 20.2816V15.6511C72.6709 8.52011 66.9384 2.7783 59.8191 2.7783H57.785C46.505 2.7783 37.4441 11.8541 37.4441 23.1525H57.6926C62.6853 23.1525 66.7535 27.2273 66.7535 32.2283C66.1988 41.0262 58.8945 47.9719 50.1109 47.9719H35.8723C28.2906 47.9719 20.9864 51.0281 15.7162 56.3994C12.2953 60.1038 6.5628 72.4209 3.14182 80.2002C1.75494 83.3489 4.06641 86.8681 7.48739 86.8681C8.96673 86.8681 10.2612 86.2198 11.1857 85.0159C13.2198 82.5154 15.5313 80.3854 18.1202 78.6258L24.8697 93.3508C25.6093 95.0178 27.366 96.1291 29.2152 96.1291C32.3588 96.1291 34.6703 93.1656 33.8382 90.1094L29.4926 73.6249C31.7116 73.1618 33.9306 72.884 36.2421 72.884H39.848C50.3883 72.884 59.5417 79.2741 63.425 88.6277C63.7024 89.3686 64.0722 90.8503 64.442 92.2395C64.9043 94.2769 66.5686 95.8513 68.6027 96.0365C71.6538 96.4069 74.1502 93.9064 73.9653 91.0355C73.7804 86.5903 73.5955 79.7371 74.1502 72.9766H82.564C85.0604 72.9766 87.4643 73.8101 89.4984 75.2919C90.1456 75.8475 90.7928 76.4032 91.3476 77.0515C92.642 78.348 94.6761 78.9036 96.6177 78.2554C99.8538 77.1441 100.963 73.5323 99.1141 70.5688C96.1554 65.753 90.8853 62.7895 85.2453 62.7895H75.722C77.0164 57.7886 79.0505 53.8064 82.2866 52.3246C93.1968 47.1384 111.226 58.4369 111.226 37.2292C111.226 37.044 111.226 36.9514 111.226 36.7661C111.226 34.1731 111.226 32.3209 111.226 32.3209Z" fill="white"/>
<path d="M6.47034 39.0814C9.42903 46.2123 16.3634 50.8428 24.0375 50.8428C25.147 50.8428 26.2565 51.4911 26.7188 52.6024C27.6434 54.7325 29.4001 56.5847 31.7116 57.6034C33.006 58.159 34.3005 58.4369 35.6873 58.4369C38.3687 58.4369 40.865 57.3255 42.8067 55.2881L44.5634 53.4359C45.9503 51.7689 47.9844 50.8428 50.2034 50.8428C60.4663 50.8428 69.065 42.7858 69.6197 32.5061C69.7122 30.9317 68.5102 29.6352 67.0309 29.5426C65.5516 29.45 64.1647 30.6539 64.0722 32.1356C63.6099 39.5444 57.5076 45.2862 50.2034 45.2862H24.0375C18.5825 45.2862 13.6821 42.0449 11.5556 36.9514L6.5628 24.9121C6.00805 23.7081 4.71362 22.8746 3.4192 23.1525C1.66248 23.5229 0.737893 25.3751 1.3851 26.9495L6.47034 39.0814Z" fill="black"/>
<path d="M114 32.3209C114 30.7465 112.798 29.5426 111.226 29.5426H100.778C100.778 29.45 100.778 29.45 100.778 29.3573V29.2647C100.686 28.8017 100.593 28.4312 100.409 27.9682V27.8756C99.6689 25.5603 98.4669 23.4303 96.7102 21.7633C93.844 18.985 90.0532 17.4107 86.0774 17.4107L78.7732 17.5033H77.8486C77.8486 17.5033 77.8486 17.5033 77.7561 17.5033H75.5371V15.6511C75.5371 7.03835 68.5102 0 59.9116 0H57.8775C45.1181 0 34.7628 10.3723 34.7628 23.1525C34.7628 24.7268 35.9647 25.9308 37.5365 25.9308H59.7267C61.2985 25.9308 62.5004 24.7268 62.5004 23.1525C62.5004 21.5781 61.2985 20.3742 59.7267 20.3742H40.5877C41.8821 11.9467 49.1863 5.55659 57.9699 5.55659H60.004C65.5516 5.55659 70.082 10.0945 70.082 15.6511V20.2816C70.082 20.4668 70.082 20.652 70.1745 20.8372C70.1745 20.9298 70.267 21.1151 70.267 21.2077C70.267 21.3003 70.267 21.3003 70.3594 21.3929C70.4519 21.4855 70.4519 21.6707 70.5443 21.7633C70.5443 21.7633 70.5443 21.8559 70.6368 21.8559C70.7293 22.0412 70.8217 22.1338 71.0066 22.319C71.0066 22.319 71.0066 22.319 71.0991 22.319C71.5614 22.782 72.301 23.0599 73.0407 23.0599H75.2597L74.8899 33.3396C74.7974 35.0992 75.2597 36.7661 76.2768 38.2479C77.8486 40.5631 80.4374 42.0449 83.2112 42.0449H83.3037C86.0774 42.0449 88.6663 40.6558 90.2381 38.3405L91.625 36.3031C92.1797 35.5622 93.0118 35.0992 93.9364 35.0992H108.822C108.822 35.6548 108.822 36.2105 108.822 36.8587V37.3218C108.822 41.6745 107.99 44.638 106.418 46.2123C104.199 48.435 99.8538 48.2498 95.2309 48.1572C90.6079 48.0645 85.8 47.8793 81.4545 49.9167C76.0919 52.5098 69.8971 61.7708 71.4689 91.3134C71.4689 91.869 71.284 92.4247 70.9142 92.7951C70.5443 93.1656 69.9896 93.4434 69.4348 93.4434C68.5102 93.4434 67.6781 92.7951 67.4932 91.869C66.846 89.1833 66.4761 88.2572 66.2912 87.7016C61.5758 77.1441 51.3129 70.2909 39.848 70.2909H36.2421C25.6093 70.2909 15.6238 75.1066 8.96673 83.4415C8.5969 83.9046 8.04214 84.1824 7.39493 84.1824C6.47034 84.1824 5.91559 83.5341 5.73067 83.2563C5.54575 82.9785 5.17592 82.2376 5.54575 81.4041C11.0933 69.3648 15.4389 60.9373 17.7503 58.3442C18.7674 57.2329 18.6749 55.4733 17.5654 54.4546C16.4559 53.4359 14.6992 53.5285 13.6821 54.6398C10.1687 58.5295 4.62117 70.1057 0.645434 79.1815C-0.371614 81.4967 -0.186696 84.1824 1.20019 86.3124C2.58707 88.4425 4.89854 89.739 7.48739 89.739C9.79886 89.739 11.9254 88.7203 13.3123 86.8681C18.8598 79.8298 27.2736 75.8475 36.2421 75.8475H39.848C49.0939 75.8475 57.3227 81.3115 60.8362 89.8316C60.9286 90.1094 61.206 90.8503 61.7607 93.1656C62.5929 96.5921 65.644 99 69.1575 99C71.1916 99 73.2256 98.1665 74.6125 96.5921C75.9994 95.1104 76.8315 93.073 76.6466 90.9429C75.6296 71.217 78.3109 57.3255 83.4886 54.9177C86.5397 53.4359 90.7004 53.6211 94.6761 53.7137C100.224 53.899 105.956 53.9916 109.839 50.1946C112.613 47.5089 113.908 43.2488 113.908 37.3218V36.8587C114 34.1731 114 32.3209 114 32.3209Z" fill="black"/>
<path d="M86.2623 26.7643C85.5267 26.7643 84.8212 27.057 84.301 27.578C83.7808 28.099 83.4886 28.8057 83.4886 29.5426C83.4886 30.2794 83.7808 30.9861 84.301 31.5071C84.8212 32.0281 85.5267 32.3209 86.2623 32.3209C86.998 32.3209 87.7035 32.0281 88.2237 31.5071C88.7439 30.9861 89.0361 30.2794 89.0361 29.5426C89.0361 28.8057 88.7439 28.099 88.2237 27.578C87.7035 27.057 86.998 26.7643 86.2623 26.7643Z" fill="white"/>
<path d="M100.778 67.9757C97.9122 63.16 92.642 60.1038 87.0945 60.1038C85.5227 60.1038 84.3207 61.3078 84.3207 62.8821C84.3207 64.4565 85.5227 65.6604 87.0945 65.6604C90.7928 65.6604 94.2138 67.6052 96.063 70.754L96.9876 72.3283C97.6348 73.347 97.1725 74.2731 96.9876 74.6436C96.8027 75.014 96.1554 75.8475 94.9535 75.8475C94.2138 75.8475 93.4741 75.4771 93.0118 74.8288C92.1797 73.5323 90.423 73.1618 89.1286 74.0879C87.8341 74.9214 87.4643 76.681 88.3889 77.9775C89.8682 80.2002 92.2722 81.4967 94.9535 81.4967C97.8197 81.4967 100.409 80.015 101.795 77.5145C103.182 75.014 103.182 72.0505 101.703 69.6427L100.778 67.9757ZM35.225 84.4602C34.8552 82.9785 33.3759 82.0524 31.8041 82.4228C30.3247 82.7933 29.4001 84.275 29.77 85.8494L31.0644 90.9429C31.2493 91.7764 30.9719 92.4247 30.6946 92.7025C30.5096 92.9804 29.9549 93.4434 29.1228 93.4434C28.3831 93.4434 27.6434 92.9803 27.2736 92.2395L24.7772 86.7755C24.13 85.3863 22.4657 84.7381 21.0788 85.3863C19.692 86.0346 19.0447 87.7016 19.692 89.0907L22.1883 94.5547C23.3903 97.2404 26.0716 99 29.0303 99C31.3418 99 33.5608 97.8887 35.0401 96.0365C36.5195 94.1843 36.9818 91.7764 36.427 89.5538L35.225 84.4602Z" fill="black"/>
<path d="M155.583 41.6047C155.329 40.6644 154.956 39.836 154.463 39.1196C153.971 38.3882 153.366 37.7688 152.65 37.2614C151.933 36.7539 151.112 36.3733 150.187 36.1196C149.262 35.8509 148.247 35.7166 147.142 35.7166C144.918 35.7166 142.993 36.2539 141.366 37.3285C139.754 38.4032 138.508 39.9704 137.627 42.0301C136.746 44.0749 136.306 46.56 136.306 49.4854C136.306 52.4258 136.732 54.9333 137.582 57.0079C138.433 59.0826 139.664 60.6647 141.276 61.7543C142.888 62.8438 144.844 63.3886 147.142 63.3886C149.172 63.3886 150.888 63.0603 152.291 62.4035C153.709 61.7319 154.784 60.7841 155.515 59.5602C156.247 58.3363 156.612 56.896 156.612 55.2392L158.672 55.4855H147.523V47.4033H167.292V53.4706C167.292 57.5751 166.419 61.0901 164.672 64.0155C162.941 66.9409 160.553 69.1872 157.508 70.7544C154.478 72.3216 150.993 73.1052 147.053 73.1052C142.679 73.1052 138.836 72.1574 135.523 70.2619C132.209 68.3663 129.627 65.6648 127.776 62.1573C125.925 58.6348 125 54.4557 125 49.6198C125 45.8585 125.56 42.5226 126.679 39.6121C127.799 36.6867 129.358 34.2091 131.358 32.1792C133.373 30.1493 135.702 28.612 138.343 27.5672C141 26.5224 143.858 26 146.918 26C149.575 26 152.045 26.3806 154.329 27.1418C156.627 27.903 158.657 28.9777 160.418 30.3657C162.195 31.7538 163.635 33.4031 164.739 35.3136C165.844 37.2241 166.53 39.3211 166.799 41.6047H155.583Z" stroke="black"/>
<path d="M189.876 73.1276C186.264 73.1276 183.159 72.3888 180.562 70.9111C177.98 69.4186 175.988 67.3439 174.585 64.6871C173.197 62.0155 172.503 58.9184 172.503 55.396C172.503 51.8586 173.197 48.7615 174.585 46.1048C175.988 43.4331 177.98 41.3584 180.562 39.8808C183.159 38.3882 186.264 37.642 189.876 37.642C193.488 37.642 196.585 38.3882 199.167 39.8808C201.764 41.3584 203.757 43.4331 205.145 46.1048C206.548 48.7615 207.249 51.8586 207.249 55.396C207.249 58.9184 206.548 62.0155 205.145 64.6871C203.757 67.3439 201.764 69.4186 199.167 70.9111C196.585 72.3888 193.488 73.1276 189.876 73.1276ZM189.943 64.8663C191.257 64.8663 192.369 64.4633 193.279 63.6573C194.189 62.8513 194.884 61.7319 195.361 60.299C195.854 58.8662 196.1 57.2094 196.1 55.3288C196.1 53.4183 195.854 51.7467 195.361 50.3138C194.884 48.8809 194.189 47.7615 193.279 46.9555C192.369 46.1496 191.257 45.7466 189.943 45.7466C188.585 45.7466 187.436 46.1496 186.495 46.9555C185.57 47.7615 184.861 48.8809 184.368 50.3138C183.891 51.7467 183.652 53.4183 183.652 55.3288C183.652 57.2094 183.891 58.8662 184.368 60.299C184.861 61.7319 185.57 62.8513 186.495 63.6573C187.436 64.4633 188.585 64.8663 189.943 64.8663Z" stroke="black"/>
<path d="M226.403 85.374V38.0897H237.239V43.9779H237.574C238.022 42.9331 238.657 41.9256 239.477 40.9554C240.313 39.9853 241.373 39.1942 242.657 38.5823C243.955 37.9554 245.507 37.642 247.313 37.642C249.701 37.642 251.933 38.2688 254.008 39.5226C256.097 40.7763 257.784 42.7092 259.067 45.3212C260.351 47.9332 260.993 51.2616 260.993 55.3064C260.993 59.202 260.373 62.4632 259.134 65.0901C257.911 67.717 256.254 69.6872 254.164 71.0007C252.09 72.3141 249.784 72.9709 247.246 72.9709C245.515 72.9709 244.015 72.6873 242.746 72.1201C241.477 71.5529 240.41 70.8066 239.545 69.8813C238.694 68.9559 238.037 67.9633 237.574 66.9036H237.351V85.374H226.403ZM237.127 55.284C237.127 57.1348 237.373 58.7468 237.865 60.1199C238.373 61.4931 239.097 62.5602 240.037 63.3215C240.992 64.0677 242.134 64.4409 243.463 64.4409C244.806 64.4409 245.948 64.0677 246.888 63.3215C247.828 62.5602 248.537 61.4931 249.015 60.1199C249.507 58.7468 249.754 57.1348 249.754 55.284C249.754 53.4332 249.507 51.8287 249.015 50.4705C248.537 49.1123 247.828 48.06 246.888 47.3138C245.963 46.5675 244.821 46.1943 243.463 46.1943C242.119 46.1943 240.977 46.56 240.037 47.2914C239.097 48.0227 238.373 49.0675 237.865 50.4257C237.373 51.784 237.127 53.4034 237.127 55.284Z" stroke="black"/>
<path d="M288.917 57.6348V38.0897H299.842V72.4783H289.409V66.0752H289.051C288.29 68.1797 286.991 69.8514 285.155 71.0902C283.334 72.3141 281.133 72.9261 278.551 72.9261C276.208 72.9261 274.148 72.3888 272.372 71.3141C270.595 70.2395 269.215 68.7394 268.23 66.814C267.245 64.8737 266.745 62.605 266.73 60.008V38.0897H277.678V57.8587C277.693 59.7244 278.185 61.1946 279.155 62.2692C280.125 63.3438 281.446 63.8812 283.118 63.8812C284.208 63.8812 285.185 63.6424 286.051 63.1647C286.932 62.6722 287.626 61.9632 288.133 61.0378C288.655 60.0975 288.917 58.9632 288.917 57.6348Z" stroke="black"/>
<path d="M306.811 85.374V38.0897H317.647V43.9779H317.982C318.43 42.9331 319.064 41.9256 319.885 40.9554C320.721 39.9853 321.781 39.1942 323.065 38.5823C324.363 37.9554 325.915 37.642 327.721 37.642C330.109 37.642 332.341 38.2688 334.415 39.5226C336.505 40.7763 338.192 42.7092 339.475 45.3212C340.759 47.9332 341.401 51.2616 341.401 55.3064C341.401 59.202 340.781 62.4632 339.542 65.0901C338.318 67.717 336.662 69.6872 334.572 71.0007C332.498 72.3141 330.191 72.9709 327.654 72.9709C325.923 72.9709 324.423 72.6873 323.154 72.1201C321.885 71.5529 320.818 70.8066 319.953 69.8813C319.102 68.9559 318.445 67.9633 317.982 66.9036H317.758V85.374H306.811ZM317.535 55.284C317.535 57.1348 317.781 58.7468 318.273 60.1199C318.781 61.4931 319.505 62.5602 320.445 63.3215C321.4 64.0677 322.542 64.4409 323.871 64.4409C325.214 64.4409 326.356 64.0677 327.296 63.3215C328.236 62.5602 328.945 61.4931 329.423 60.1199C329.915 58.7468 330.162 57.1348 330.162 55.284C330.162 53.4332 329.915 51.8287 329.423 50.4705C328.945 49.1123 328.236 48.06 327.296 47.3138C326.371 46.5675 325.229 46.1943 323.871 46.1943C322.527 46.1943 321.385 46.56 320.445 47.2914C319.505 48.0227 318.781 49.0675 318.273 50.4257C317.781 51.784 317.535 53.4034 317.535 55.284Z" stroke="black"/>
<path d="M111.226 32.3209H98.282C98.282 25.5603 92.7345 20.0964 86.0774 20.189L72.6709 20.2816V15.6511C72.6709 8.52011 66.9384 2.7783 59.8191 2.7783H57.785C46.505 2.7783 37.4441 11.8541 37.4441 23.1525H57.6926C62.6853 23.1525 66.7535 27.2273 66.7535 32.2283C66.1988 41.0262 58.8945 47.9719 50.1109 47.9719H35.8723C28.2906 47.9719 20.9864 51.0281 15.7162 56.3994C12.2953 60.1038 6.5628 72.4209 3.14182 80.2002C1.75494 83.3489 4.06641 86.8681 7.48739 86.8681C8.96673 86.8681 10.2612 86.2198 11.1857 85.0159C13.2198 82.5154 15.5313 80.3854 18.1202 78.6258L24.8697 93.3508C25.6093 95.0178 27.366 96.1291 29.2152 96.1291C32.3588 96.1291 34.6703 93.1656 33.8382 90.1094L29.4926 73.6249C31.7116 73.1618 33.9306 72.884 36.2421 72.884H39.848C50.3883 72.884 59.5417 79.2741 63.425 88.6277C63.7024 89.3686 64.0722 90.8503 64.442 92.2395C64.9043 94.2769 66.5686 95.8513 68.6027 96.0365C71.6538 96.4069 74.1502 93.9064 73.9653 91.0355C73.7804 86.5903 73.5955 79.7371 74.1502 72.9766H82.564C85.0604 72.9766 87.4643 73.8101 89.4984 75.2919C90.1456 75.8475 90.7928 76.4032 91.3476 77.0515C92.642 78.348 94.6761 78.9036 96.6177 78.2554C99.8538 77.1441 100.963 73.5323 99.1141 70.5688C96.1554 65.753 90.8853 62.7895 85.2453 62.7895H75.722C77.0164 57.7886 79.0505 53.8064 82.2866 52.3246C93.1968 47.1384 111.226 58.4369 111.226 37.2292C111.226 37.044 111.226 36.9514 111.226 36.7661C111.226 34.1731 111.226 32.3209 111.226 32.3209Z" stroke="black"/>
<path d="M6.47034 39.0814C9.42903 46.2123 16.3634 50.8428 24.0375 50.8428C25.147 50.8428 26.2565 51.4911 26.7188 52.6024C27.6434 54.7325 29.4001 56.5847 31.7116 57.6034C33.006 58.159 34.3005 58.4369 35.6873 58.4369C38.3687 58.4369 40.865 57.3255 42.8067 55.2881L44.5634 53.4359C45.9503 51.7689 47.9844 50.8428 50.2034 50.8428C60.4663 50.8428 69.065 42.7858 69.6197 32.5061C69.7122 30.9317 68.5102 29.6352 67.0309 29.5426C65.5516 29.45 64.1647 30.6539 64.0722 32.1356C63.6099 39.5444 57.5076 45.2862 50.2034 45.2862H24.0375C18.5825 45.2862 13.6821 42.0449 11.5556 36.9514L6.5628 24.9121C6.00805 23.7081 4.71362 22.8746 3.4192 23.1525C1.66248 23.5229 0.737893 25.3751 1.3851 26.9495L6.47034 39.0814Z" stroke="black"/>
<path d="M114 32.3209C114 30.7465 112.798 29.5426 111.226 29.5426H100.778C100.778 29.45 100.778 29.45 100.778 29.3573V29.2647C100.686 28.8017 100.593 28.4312 100.409 27.9682V27.8756C99.6689 25.5603 98.4669 23.4303 96.7102 21.7633C93.844 18.985 90.0532 17.4107 86.0774 17.4107L78.7732 17.5033H77.8486C77.8486 17.5033 77.8486 17.5033 77.7561 17.5033H75.5371V15.6511C75.5371 7.03835 68.5102 0 59.9116 0H57.8775C45.1181 0 34.7628 10.3723 34.7628 23.1525C34.7628 24.7268 35.9647 25.9308 37.5365 25.9308H59.7267C61.2985 25.9308 62.5004 24.7268 62.5004 23.1525C62.5004 21.5781 61.2985 20.3742 59.7267 20.3742H40.5877C41.8821 11.9467 49.1863 5.55659 57.9699 5.55659H60.004C65.5516 5.55659 70.082 10.0945 70.082 15.6511V20.2816C70.082 20.4668 70.082 20.652 70.1745 20.8372C70.1745 20.9298 70.267 21.1151 70.267 21.2077C70.267 21.3003 70.267 21.3003 70.3594 21.3929C70.4519 21.4855 70.4519 21.6707 70.5443 21.7633C70.5443 21.7633 70.5443 21.8559 70.6368 21.8559C70.7293 22.0412 70.8217 22.1338 71.0066 22.319C71.0066 22.319 71.0066 22.319 71.0991 22.319C71.5614 22.782 72.301 23.0599 73.0407 23.0599H75.2597L74.8899 33.3396C74.7974 35.0992 75.2597 36.7661 76.2768 38.2479C77.8486 40.5631 80.4374 42.0449 83.2112 42.0449H83.3037C86.0774 42.0449 88.6663 40.6558 90.2381 38.3405L91.625 36.3031C92.1797 35.5622 93.0118 35.0992 93.9364 35.0992H108.822C108.822 35.6548 108.822 36.2105 108.822 36.8587V37.3218C108.822 41.6745 107.99 44.638 106.418 46.2123C104.199 48.435 99.8538 48.2498 95.2309 48.1572C90.6079 48.0645 85.8 47.8793 81.4545 49.9167C76.0919 52.5098 69.8971 61.7708 71.4689 91.3134C71.4689 91.869 71.284 92.4247 70.9142 92.7951C70.5443 93.1656 69.9896 93.4434 69.4348 93.4434C68.5102 93.4434 67.6781 92.7951 67.4932 91.869C66.846 89.1833 66.4761 88.2572 66.2912 87.7016C61.5758 77.1441 51.3129 70.2909 39.848 70.2909H36.2421C25.6093 70.2909 15.6238 75.1066 8.96673 83.4415C8.5969 83.9046 8.04214 84.1824 7.39493 84.1824C6.47034 84.1824 5.91559 83.5341 5.73067 83.2563C5.54575 82.9785 5.17592 82.2376 5.54575 81.4041C11.0933 69.3648 15.4389 60.9373 17.7503 58.3442C18.7674 57.2329 18.6749 55.4733 17.5654 54.4546C16.4559 53.4359 14.6992 53.5285 13.6821 54.6398C10.1687 58.5295 4.62117 70.1057 0.645434 79.1815C-0.371614 81.4967 -0.186696 84.1824 1.20019 86.3124C2.58707 88.4425 4.89854 89.739 7.48739 89.739C9.79886 89.739 11.9254 88.7203 13.3123 86.8681C18.8598 79.8298 27.2736 75.8475 36.2421 75.8475H39.848C49.0939 75.8475 57.3227 81.3115 60.8362 89.8316C60.9286 90.1094 61.206 90.8503 61.7607 93.1656C62.5929 96.5921 65.644 99 69.1575 99C71.1916 99 73.2256 98.1665 74.6125 96.5921C75.9994 95.1104 76.8315 93.073 76.6466 90.9429C75.6296 71.217 78.3109 57.3255 83.4886 54.9177C86.5397 53.4359 90.7004 53.6211 94.6761 53.7137C100.224 53.899 105.956 53.9916 109.839 50.1946C112.613 47.5089 113.908 43.2488 113.908 37.3218V36.8587C114 34.1731 114 32.3209 114 32.3209Z" stroke="black"/>
<path d="M86.2623 26.7643C85.5267 26.7643 84.8212 27.057 84.301 27.578C83.7808 28.099 83.4886 28.8057 83.4886 29.5426C83.4886 30.2794 83.7808 30.9861 84.301 31.5071C84.8212 32.0281 85.5267 32.3209 86.2623 32.3209C86.998 32.3209 87.7035 32.0281 88.2237 31.5071C88.7439 30.9861 89.0361 30.2794 89.0361 29.5426C89.0361 28.8057 88.7439 28.099 88.2237 27.578C87.7035 27.057 86.998 26.7643 86.2623 26.7643Z" stroke="black"/>
<path d="M100.778 67.9757C97.9122 63.16 92.642 60.1038 87.0945 60.1038C85.5227 60.1038 84.3207 61.3078 84.3207 62.8821C84.3207 64.4565 85.5227 65.6604 87.0945 65.6604C90.7928 65.6604 94.2138 67.6052 96.063 70.754L96.9876 72.3283C97.6348 73.347 97.1725 74.2731 96.9876 74.6436C96.8027 75.014 96.1554 75.8475 94.9535 75.8475C94.2138 75.8475 93.4741 75.4771 93.0118 74.8288C92.1797 73.5323 90.423 73.1618 89.1286 74.0879C87.8341 74.9214 87.4643 76.681 88.3889 77.9775C89.8682 80.2002 92.2722 81.4967 94.9535 81.4967C97.8197 81.4967 100.409 80.015 101.795 77.5145C103.182 75.014 103.182 72.0505 101.703 69.6427L100.778 67.9757ZM35.225 84.4602C34.8552 82.9785 33.3759 82.0524 31.8041 82.4228C30.3247 82.7933 29.4001 84.275 29.77 85.8494L31.0644 90.9429C31.2493 91.7764 30.9719 92.4247 30.6946 92.7025C30.5096 92.9804 29.9549 93.4434 29.1228 93.4434C28.3831 93.4434 27.6434 92.9803 27.2736 92.2395L24.7772 86.7755C24.13 85.3863 22.4657 84.7381 21.0788 85.3863C19.692 86.0346 19.0447 87.7016 19.692 89.0907L22.1883 94.5547C23.3903 97.2404 26.0716 99 29.0303 99C31.3418 99 33.5608 97.8887 35.0401 96.0365C36.5195 94.1843 36.9818 91.7764 36.427 89.5538L35.225 84.4602Z" stroke="black"/>
</svg>
