<svg width="19" height="19" viewBox="0 0 19 19" fill="none" xmlns="http://www.w3.org/2000/svg">
<path d="M17.71 16.49L14.31 13.1C15.407 11.7024 16.0022 9.97661 16 8.19995C16 6.6177 15.5308 5.07099 14.6518 3.75539C13.7727 2.4398 12.5233 1.41442 11.0615 0.808918C9.59966 0.203417 7.99113 0.0449908 6.43928 0.353673C4.88743 0.662354 3.46197 1.42428 2.34315 2.5431C1.22433 3.66192 0.462403 5.08738 0.153721 6.63923C-0.15496 8.19108 0.00346625 9.79961 0.608967 11.2614C1.21447 12.7232 2.23985 13.9727 3.55544 14.8517C4.87103 15.7308 6.41775 16.2 8 16.2C9.77666 16.2022 11.5025 15.6069 12.9 14.51L16.29 17.91C16.383 18.0037 16.4936 18.0781 16.6154 18.1288C16.7373 18.1796 16.868 18.2058 17 18.2058C17.132 18.2058 17.2627 18.1796 17.3846 18.1288C17.5064 18.0781 17.617 18.0037 17.71 17.91C17.8037 17.817 17.8781 17.7064 17.9289 17.5845C17.9797 17.4627 18.0058 17.332 18.0058 17.2C18.0058 17.0679 17.9797 16.9372 17.9289 16.8154C17.8781 16.6935 17.8037 16.5829 17.71 16.49ZM2 8.19995C2 7.01327 2.3519 5.85323 3.01119 4.86653C3.67047 3.87984 4.60755 3.1108 5.7039 2.65668C6.80026 2.20255 8.00666 2.08373 9.17055 2.31524C10.3344 2.54675 11.4035 3.1182 12.2426 3.95731C13.0818 4.79643 13.6532 5.86553 13.8847 7.02941C14.1162 8.1933 13.9974 9.3997 13.5433 10.4961C13.0892 11.5924 12.3201 12.5295 11.3334 13.1888C10.3467 13.8481 9.18669 14.2 8 14.2C6.4087 14.2 4.88258 13.5678 3.75736 12.4426C2.63214 11.3174 2 9.79125 2 8.19995Z" fill="white"/>
</svg>
